<svg width="17" height="14" viewBox="0 0 17 14" fill="none" xmlns="http://www.w3.org/2000/svg">
<path opacity="0.5" d="M2.1 11.1555C2.10026 11.3529 2.17878 11.5421 2.31835 11.6816C2.45794 11.8212 2.6472 11.8998 2.84462 11.9H14.1554C14.3528 11.8998 14.5421 11.8212 14.6816 11.6816C14.8212 11.5421 14.8998 11.3528 14.9 11.1554V4.59916L8.8246 8.5046L8.82457 8.50462L8.7705 8.4205C8.68983 8.47239 8.59592 8.49999 8.5 8.49999C8.40408 8.49999 8.31017 8.47239 8.2295 8.4205L2.1 11.1555ZM2.1 11.1555C2.1 11.1554 2.1 11.1554 2.1 11.1554L2.1 4.59916L8.1754 8.5046L2.1 11.1555ZM14.1556 0.9H14.1555L2.8445 0.9L2.84439 0.9C2.32888 0.900558 1.83464 1.10559 1.47012 1.47012C1.10559 1.83464 0.900558 2.32888 0.9 2.84439V2.8445L0.9 11.1555L0.9 11.1556C0.900558 11.6711 1.10559 12.1654 1.47012 12.5299C1.83464 12.8944 2.32888 13.0994 2.84439 13.1H2.8445H14.1555H14.1556C14.6711 13.0994 15.1654 12.8944 15.5299 12.5299C15.8944 12.1654 16.0994 11.6711 16.1 11.1556V11.1555V2.8445V2.84439C16.0994 2.32888 15.8944 1.83464 15.5299 1.47012C15.1654 1.10559 14.6711 0.900558 14.1556 0.9ZM2.84462 2.1H14.1554C14.1554 2.1 14.1554 2.1 14.1555 2.1C14.3529 2.10026 14.5421 2.17878 14.6816 2.31835C14.8212 2.45794 14.8998 2.6472 14.9 2.84462V3.1724L8.5 7.28662L2.1 3.1724L2.1 2.84462C2.1 2.84459 2.1 2.84455 2.1 2.84452C2.10026 2.64714 2.17878 2.45792 2.31835 2.31835C2.45792 2.17878 2.64714 2.10026 2.84452 2.1C2.84455 2.1 2.84459 2.1 2.84462 2.1Z" fill="#573353" stroke="#573353" stroke-width="0.2"/>
</svg>
