<svg width="14" height="18" viewBox="0 0 14 18" fill="none" xmlns="http://www.w3.org/2000/svg">
<path opacity="0.5" d="M7 0.9C4.44477 0.9 2.4 2.94477 2.4 5.5V7.40285C1.5441 7.45192 0.9 8.1284 0.9 9V15.5C0.9 16.4052 1.59477 17.1 2.5 17.1H11.5C12.4052 17.1 13.1 16.4052 13.1 15.5V9C13.1 8.1284 12.4559 7.45192 11.6 7.40285V5.5C11.6 2.94477 9.55523 0.9 7 0.9ZM11.9 9V15.5C11.9 15.6273 11.858 15.7256 11.7918 15.7918C11.7256 15.858 11.6273 15.9 11.5 15.9H2.5C2.37272 15.9 2.27443 15.858 2.20821 15.7918C2.14199 15.7256 2.1 15.6273 2.1 15.5V9C2.1 8.87272 2.14199 8.77443 2.20821 8.70821C2.27443 8.64199 2.37272 8.6 2.5 8.6H3H11H11.5C11.6273 8.6 11.7256 8.64199 11.7918 8.70821C11.858 8.77443 11.9 8.87272 11.9 9ZM3.6 7.4V5.5C3.6 3.60523 5.10523 2.1 7 2.1C8.89477 2.1 10.4 3.60523 10.4 5.5V7.4H3.6Z" fill="#573353" stroke="#573353" stroke-width="0.2"/>
</svg>
