<svg version="1.2" xmlns="http://www.w3.org/2000/svg" viewBox="0 0 24 24" width="24" height="24"><style>.s0{fill:none;stroke:#060606;stroke-linecap:round;stroke-linejoin:round;stroke-width:2.5}</style><path id="Layer" class="s0" d="M19.2 17.6c-1.8-1.5-4.3-2.5-7.2-2.5-2.9 0-5.4 1-7.2 2.5"/><path class="s0" d="M12 12c1.4 0 2.6-1.2 2.6-2.6 0-1.4-1.2-2.5-2.6-2.5-1.4 0-2.6 1.1-2.6 2.5S10.6 12 12 12z"/><path class="s0" d="M12.3 21.5c5.1 0 9.2-4.1 9.2-9.3 0-5.1-4.1-9.2-9.3-9.2C7.1 3 3 7.1 3 12.3c0 5.1 4.1 9.2 9.3 9.2z"/></svg>